# xmcd
#
# Track frame offsets:
#	150
#	23499
#	43653
#	66642
#	83189
#	105704
#	128133
#	149803
#	168392
#	188375
#	213962
#	233914
#	256034
#	274519
#	294933
#	319070
#
# Disc length: 4585 seconds
#
# Revision: 0
# Processed by: cddbd v1.5.2PL0 Copyright (c) Steve Scherf et al.
# Submitted via: EasyCDDAExtractor 12.0.1.1
#
DISCID=e111e710
DTITLE=齐秦 - 呼唤
DYEAR=2002
DGENRE=pop
TTITLE0=真的是我
TTITLE1=Sophia
TTITLE2=呼唤
TTITLE3=其实都是一样
TTITLE4=少了自己
TTITLE5=野衣裳
TTITLE6=协议分手
TTITLE7=受保护
TTITLE8=1945
TTITLE9=七匹狼
TTITLE10=在第六对相遇
TTITLE11=呼唤(Additional Version)
TTITLE12=无情的雨无情的你
TTITLE13=不让我的眼泪陪我过夜
TTITLE14=大约在冬季
TTITLE15=狼
EXTD=
EXTT0=
EXTT1=
EXTT2=
EXTT3=
EXTT4=
EXTT5=
EXTT6=
EXTT7=
EXTT8=
EXTT9=
EXTT10=
EXTT11=
EXTT12=
EXTT13=
EXTT14=
EXTT15=
PLAYORDER=
